# xmcd
#
# Track frame offsets: 
#        150
#        9262
#        24822
#        37961
#        53898
#        70641
#        81899
#        101564
#        115740
#        128573
#        147833
#        161939
#        174415
#        190822
#        210639
#        226453
#        243208
#        262261
#        276046
#        299729
#        319741
#        335787
#
# Disc length: 4755 seconds
#
# Revision: 0
# Processed by: cddbd v1.5.2PL0 Copyright (c) Steve Scherf et al.
# Submitted via: ExactAudioCopy v1.3
#
DISCID=39129116
DTITLE=John Grenell - Welcome To My World
DYEAR=2013
DGENRE=Country
TTITLE0=Welcome To Our World (version 2)
TTITLE1=Blue Smoke
TTITLE2=Have You Ever Been Lonely (with Jodi Vaughan)
TTITLE3=I've Been Everywhere
TTITLE4=Take Me Back To Taumatawhakatangihangamkoauauotamateapokaiwhen
TTITLE4=uakitanatahu
TTITLE5=A Rolling Stone
TTITLE6=Carolina In The Pines
TTITLE7=Rockin' Over River
TTITLE8=Other Side Of The Hill
TTITLE9=Love Is The Master
TTITLE10=Mandrake Aristocrat
TTITLE11=All God's Critters
TTITLE12=Ghost Town
TTITLE13=Dance In The Night (Down Otago Way)
TTITLE14=Lovers And Losers
TTITLE15=Dance With You
TTITLE16=She Knows Her Daddy Sings
TTITLE17=Plains Song (Canterbury Wind)
TTITLE18=Windstar - Aotearoa
TTITLE19=Rakaia River Waltz (River Song)
TTITLE20=Glendhu Bay
TTITLE21=Soul Of Southland (Taka Timu Memories)
EXTD=
EXTT0=
EXTT1=
EXTT2=
EXTT3=
EXTT4=
EXTT5=
EXTT6=
EXTT7=
EXTT8=
EXTT9=
EXTT10=
EXTT11=
EXTT12=
EXTT13=
EXTT14=
EXTT15=
EXTT16=
EXTT17=
EXTT18=
EXTT19=
EXTT20=
EXTT21=
PLAYORDER=
